<?xml version="1.0" encoding="UTF-8"?>
<svg width="500px" height="500px" viewBox="0 0 500 500" version="1.1" xmlns="http://www.w3.org/2000/svg" xmlns:xlink="http://www.w3.org/1999/xlink">
    <!-- Generator: Sketch 48.2 (47327) - http://www.bohemiancoding.com/sketch -->
    <title>icon-timeline</title>
    <desc>Created with Sketch.</desc>
    <defs></defs>
    <g id="Page-1" stroke="none" stroke-width="1" fill="none" fill-rule="evenodd">
        <g id="icon-timeline">
            <g>
                <g id="_x36_4px_Boxes">
                    <rect id="Rectangle-path" x="0" y="0" width="500" height="500"></rect>
                </g>
                <g id="Production" transform="translate(62.500000, 62.500000)" fill="#000000" fill-rule="nonzero">
                    <g id="Group">
                        <path d="M187.5,0 C83.9460938,0 0,83.9382812 0,187.5 C0,291.061719 83.9460938,375 187.5,375 C291.061719,375 375,291.061719 375,187.5 C375,83.9382812 291.061719,0 187.5,0 Z M187.5,328.575 C109.710938,328.575 46.425,265.289062 46.425,187.5 C46.425,109.710938 109.710938,46.425 187.5,46.425 C265.289062,46.425 328.575,109.710938 328.575,187.5 C328.575,265.289062 265.289062,328.575 187.5,328.575 Z" id="Shape"></path>
                        <path d="M289.127344,185.623437 C289.119531,185.623437 289.409375,185.623437 289.409375,185.623437 L205.757031,177.345312 L199.21875,85.8765625 C198.486719,79.3875 193.961719,74.6539063 187.5,74.6539063 C181.038281,74.6539063 176.269531,78.8578125 175.792969,85.8765625 L167.96875,193.546094 C167.96875,203.628906 175.678125,211.917969 185.516406,212.921094 C186.1,213.253125 289.127344,205.566406 289.127344,205.566406 C295.898438,204.910156 300.846094,202.053125 300.846094,195.590625 C300.846094,189.136719 296.333594,186.111719 289.127344,185.623437 Z" id="Shape"></path>
                    </g>
                </g>
            </g>
        </g>
    </g>
</svg>